<svg xmlns="http://www.w3.org/2000/svg" xmlns:xlink="http://www.w3.org/1999/xlink" xmlns:lucid="lucid" width="632" height="254"><g transform="translate(-113.33333333329458 -186.66666666670548)" lucid:page-tab-id="0_0"><path d="M580 212.67a6 6 0 0 1 6-6h133.33a6 6 0 0 1 6 6v56a6 6 0 0 1-6 6H586a6 6 0 0 1-6-6z" stroke="#3a414a" fill="#fff"/><use xlink:href="#a" transform="matrix(1,0,0,1,585.0000000000388,211.66666666670548) translate(23.555555555555557 32.27777777777778)"/><use xlink:href="#b" transform="matrix(1,0,0,1,585.0000000000388,211.66666666670548) translate(45.77777777777778 32.27777777777778)"/><use xlink:href="#c" transform="matrix(1,0,0,1,585.0000000000388,211.66666666670548) translate(68 32.27777777777778)"/><use xlink:href="#d" transform="matrix(1,0,0,1,585.0000000000388,211.66666666670548) translate(90.22222222222221 32.27777777777778)"/><path d="M356.67 212.67a6 6 0 0 1 6-6H496a6 6 0 0 1 6 6v56a6 6 0 0 1-6 6H362.67a6 6 0 0 1-6-6z" stroke="#3a414a" fill="#fff"/><use xlink:href="#e" transform="matrix(1,0,0,1,361.66666666666674,211.66666666670548) translate(13.432098765432109 32.27777777777778)"/><use xlink:href="#f" transform="matrix(1,0,0,1,361.66666666666674,211.66666666670548) translate(35.65432098765433 32.27777777777778)"/><use xlink:href="#g" transform="matrix(1,0,0,1,361.66666666666674,211.66666666670548) translate(57.87654320987655 32.27777777777778)"/><use xlink:href="#h" transform="matrix(1,0,0,1,361.66666666666674,211.66666666670548) translate(80.09876543209876 32.27777777777778)"/><use xlink:href="#i" transform="matrix(1,0,0,1,361.66666666666674,211.66666666670548) translate(107.87654320987653 32.27777777777778)"/><path d="M580 358.67a6 6 0 0 1 6-6h133.33a6 6 0 0 1 6 6v56a6 6 0 0 1-6 6H586a6 6 0 0 1-6-6z" stroke="#3a414a" fill="#fff"/><use xlink:href="#j" transform="matrix(1,0,0,1,585.0000000000388,357.66666666666674) translate(23.555555555555557 32.27777777777778)"/><use xlink:href="#k" transform="matrix(1,0,0,1,585.0000000000388,357.66666666666674) translate(45.77777777777778 32.27777777777778)"/><use xlink:href="#l" transform="matrix(1,0,0,1,585.0000000000388,357.66666666666674) translate(68 32.27777777777778)"/><use xlink:href="#m" transform="matrix(1,0,0,1,585.0000000000388,357.66666666666674) translate(90.22222222222221 32.27777777777778)"/><path d="M652.67 351.7v-60.2" stroke="#3a414a" fill="none"/><path d="M653.17 352.2h-1v-.5h1z" stroke="#3a414a" stroke-width=".05" fill="#3a414a"/><path d="M652.67 276.75L657.3 291h-9.27z" stroke="#3a414a" fill="#3a414a"/><path d="M502.96 240.67h60.2" stroke="#3a414a" fill="none"/><path d="M502.98 241.17h-.52v-1h.52z" stroke="#3a414a" stroke-width=".05" fill="#3a414a"/><path d="M577.92 240.67l-14.27 4.63v-9.27z" stroke="#3a414a" fill="#3a414a"/><path d="M133.33 212.67a6 6 0 0 1 6-6h133.34a6 6 0 0 1 6 6v56a6 6 0 0 1-6 6H139.33a6 6 0 0 1-6-6z" stroke="#3a414a" fill="#fff"/><g><use xlink:href="#e" transform="matrix(1,0,0,1,138.33333333329458,211.66666666670548) translate(17.104938271604944 32.27777777777778)"/><use xlink:href="#f" transform="matrix(1,0,0,1,138.33333333329458,211.66666666670548) translate(39.327160493827165 32.27777777777778)"/><use xlink:href="#g" transform="matrix(1,0,0,1,138.33333333329458,211.66666666670548) translate(61.54938271604939 32.27777777777778)"/><use xlink:href="#h" transform="matrix(1,0,0,1,138.33333333329458,211.66666666670548) translate(83.7716049382716 32.27777777777778)"/><use xlink:href="#n" transform="matrix(1,0,0,1,138.33333333329458,211.66666666670548) translate(111.54938271604937 32.27777777777778)"/></g><path d="M279.63 240.67h60.2" stroke="#3a414a" fill="none"/><path d="M279.64 241.17h-.5v-1h.5z" stroke="#3a414a" stroke-width=".05" fill="#3a414a"/><path d="M354.6 240.67l-14.28 4.63v-9.27z" stroke="#3a414a" fill="#3a414a"/><path d="M250.67 358.67a6 6 0 0 1 6-6H390a6 6 0 0 1 6 6v56a6 6 0 0 1-6 6H256.67a6 6 0 0 1-6-6z" stroke="#3a414a" fill="#fff"/><g><use xlink:href="#o" transform="matrix(1,0,0,1,255.66666666666663,357.66666666666674) translate(12.444444444444443 32.27777777777778)"/><use xlink:href="#p" transform="matrix(1,0,0,1,255.66666666666663,357.66666666666674) translate(34.666666666666664 32.27777777777778)"/><use xlink:href="#q" transform="matrix(1,0,0,1,255.66666666666663,357.66666666666674) translate(56.888888888888886 32.27777777777778)"/><use xlink:href="#r" transform="matrix(1,0,0,1,255.66666666666663,357.66666666666674) translate(79.1111111111111 32.27777777777778)"/><use xlink:href="#s" transform="matrix(1,0,0,1,255.66666666666663,357.66666666666674) translate(101.33333333333333 32.27777777777778)"/></g><defs><path fill="#3a414a" d="M270-161c11-22-7-71 14-79-3-9-15-10-20-19l-11 12H94l-20-9c8 27 2 64 4 97 3 4 19 2 17-9h162c-3 11 4 11 13 7zM95-178v-26h162v26H95zm0-36v-23h162v23H95zm208 48l-16 18H26l6 10h289c8 1 10-9 2-11-8-5-15-11-20-17zm-30 69c0-8 25-13 8-21-5-3-10-6-15-12l-10 12H89l-19-9c8 30 2 70 4 106 4 4 20-1 17-12h74v28H55l5 10h105v30H21l5 9h294c11 0 10-7 2-11-9-4-15-12-20-18l-16 20H181V5h106c8 1 10-9 2-11-8-5-14-9-18-15L256-5h-75v-28h76c-3 11 6 8 13 5 8-16 3-47 3-69zM91-42v-29h74v29H91zm90-29h76v29h-76v-29zM91-81v-27h74v27H91zm90-27h76v27h-76v-27" id="t"/><use transform="matrix(0.06172839506172839,0,0,0.06172839506172839,0,0)" xlink:href="#t" id="a"/><path fill="#3a414a" d="M184-147c0-7 15-10 4-15 30-13 60-28 89-48 5-3 36-3 18-16-6-4-12-11-18-21l-13 13H60l6 9h200c-29 25-57 46-86 62-5-1-11-2-17-4 4 10 3 36 3 53H19l6 10h141V20c-6 12-39 4-51 2v4c22 4 30 16 38 28 13 0 31-16 31-34v-124h140c10 0 10-8 2-11-10-6-18-12-23-19l-17 20H184v-33" id="u"/><use transform="matrix(0.06172839506172839,0,0,0.06172839506172839,0,0)" xlink:href="#u" id="b"/><path fill="#3a414a" d="M308-158c-1-7 28-12 11-22-5-3-11-8-16-16l-17 12h-98c3-19-5-51 9-60-7-5-21-5-32-11 4 18 5 48 3 71H36l5 10h127C161-51 104 10 17 51l1 4C122 6 174-37 187-174h104c-5 94-2 140-22 187-13 11-26 3-52 1v4c19 5 33 13 41 29 26-12 31-23 38-57 4-23 9-72 12-148" id="v"/><use transform="matrix(0.06172839506172839,0,0,0.06172839506172839,0,0)" xlink:href="#v" id="c"/><path fill="#3a414a" d="M73-252c20 21 26 40 38 56 12 1 15-20 6-28-4-6-18-16-41-32zm75-4c18 22 23 42 35 59 11 1 15-20 6-29-4-6-17-18-38-35zM41-133c16-5 20-22 21-44h232c-8 15-15 28-22 36l3 3c16-8 22-29 46-33 9-1 8-11 2-14-7-3-12-9-18-16l-14 15h-57c16-12 30-29 43-50 7-4 22-9 5-15-6-3-12-6-18-10-9 34-21 48-39 75H63v-17h-5c-2 33-17 42-29 61 2 6 5 9 12 9zm142 73c-5-16 12-21 5-27 24-10 39-33 72-39 9-1 11-9 2-13-7-3-13-9-19-17l-14 12H73l5 10h151l-49 45c-6-1-12-2-18-4 2 7 3 20 3 33H21l5 10h139v71c-4 13-36 5-48 4v4c19 4 28 13 34 25 13 0 32-15 32-33v-71h140c10 0 10-9 1-12-10-6-17-12-22-19l-18 21H183" id="w"/><use transform="matrix(0.06172839506172839,0,0,0.06172839506172839,0,0)" xlink:href="#w" id="d"/><path fill="#3a414a" d="M183-217c-2-17 3-24 6-34l-26-8c4 9 3 28 3 42H25l5 10h285c10 1 10-9 2-11-9-5-17-11-22-18l-18 19h-94zm66 54c0-8 18-14 3-21-5-3-9-7-14-12l-11 11H114l-19-10c10 22-2 61 7 84 7-3 16-4 13-16h117c-2 11 4 14 13 9 9-8 4-30 4-45zm-134 26v-38h117v38H115zm187 60c1-6 18-12 8-19-5-3-10-7-15-13l-12 11H60l-19-10C51-62 42-1 45 51c2 7 15-1 17-4V-89h224V15c-1 24-24 9-46 10v4c20 6 31 13 40 25 8-3 22-16 22-30V-77zm-69 43c-1-8 24-13 7-20-5-3-10-7-15-13l-11 10c-37-2-86 8-108-10 10 25-1 67 6 95 11-1 17-8 14-23h91c1 5-3 15 3 15 21-1 11-34 13-54zM126-5v-43h91v43h-91" id="x"/><use transform="matrix(0.06172839506172839,0,0,0.06172839506172839,0,0)" xlink:href="#x" id="e"/><path fill="#3a414a" d="M88-224c1-11 28-16 11-23-5-2-11-6-18-11-15 47-24 62-55 95 23-6 39-31 56-51h24c13 12 12 41 27 47 25-12-7-37-19-47h56c8 1 8-8 2-11-8-4-16-8-21-16l-18 17H88zm125 0c6-6 7-15 16-17 7-2 5-6-2-9-6-2-11-6-18-11-11 38-18 49-41 77 13 2 27-19 38-30h33c14 9 16 34 29 40 22-11-6-33-20-40h75c7 0 6-8 1-11-8-3-14-8-19-15l-17 16h-75zm10 278c12-2 31-18 31-36v-70h62c10 1 9-9 1-11-8-5-15-10-19-16l-16 17h-28v-34h67c9 1 9-9 2-11-8-5-15-10-20-16l-16 18H183v-36h103c7 0 9-10 1-11-8-5-15-10-19-16l-17 17h-68c-5-13 15-19 1-24-6-1-14-3-21-6 3 6 3 19 3 30H60l6 10h100v36H25l5 9h206v34H33l5 10h198c-6 28 17 78-18 78l-34-2v4c23 4 31 14 39 26zm-83-41c7 13 22 9 19-8-8-20-37-33-65-42 26 19 31 22 46 50" id="y"/><use transform="matrix(0.06172839506172839,0,0,0.06172839506172839,0,0)" xlink:href="#y" id="f"/><path fill="#3a414a" d="M48-245c15 16 22 30 30 44 8 0 11-16 4-22-3-5-13-13-32-25zm85 45c21-2 32-27 50-37-4-6-14-7-20-14-7 22-17 36-30 51zm28 76c23-21-14-36-39-44v-13h69c9 1 9-8 2-10-7-4-13-10-17-15l-15 15h-39c1-20-4-48 6-59-5-5-20-4-25-8 4 12 3 47 3 67H29l5 10h63c-18 38-42 60-74 80l2 4c36-16 60-36 81-66v54l-4-2c-2 10-7 22-14 36H21l5 10h57C75-49 64-30 50-8c11 11 21-5 24-14 16 5 30 10 41 17-22 30-50 45-96 56v3c51-7 83-23 108-51 20 12 22 21 36 28 4-1 7-4 7-10-6-15-18-19-35-29 9-13 18-27 31-57 13-1 52 3 35-11-7-6-16-11-20-17l-16 18h-59c4-9 11-19 19-23-1-5-12-5-17-9 23-1 12-36 14-58 16 11 20 16 31 34 2 4 4 7 8 7zm-14 59c-10 25-18 42-25 51-11-5-27-9-45-13l23-38h47zm109 33c22-41 35-79 43-143 11 0 38 2 24-11-8-3-15-8-20-15l-16 16h-57c6-13 11-29 17-47 3-4 20-8 5-14-7-2-13-6-21-12-11 65-27 112-58 155l3 3c14-15 25-31 35-49 3 44 13 84 28 119-24 37-52 60-99 81l1 3c47-15 82-35 105-70 10 17 27 38 49 62 13-6 20-11 32-3l1-4c-35-21-54-41-72-71zm-7-14c-12-28-28-69-32-114 3-5 6-9 9-15h55c-6 58-16 92-32 129" id="z"/><use transform="matrix(0.06172839506172839,0,0,0.06172839506172839,0,0)" xlink:href="#z" id="g"/><use transform="matrix(0.06172839506172839,0,0,0.06172839506172839,0,0)" xlink:href="#w" id="h"/><path fill="#3a414a" d="M77-14l30 5v9H13v-9l30-5v-208l-30-4v-10h94v10l-30 4v208" id="A"/><g id="i"><use transform="matrix(0.06172839506172839,0,0,0.06172839506172839,0,0)" xlink:href="#A"/><use transform="matrix(0.06172839506172839,0,0,0.06172839506172839,7.345679012345679,0)" xlink:href="#A"/></g><path fill="#3a414a" d="M43-145c25-26 36-62 57-98-5-5-15-6-22-12-9 43-26 88-56 108 5 8 7 16 8 23 22-11 41-10 70-23-16 30-42 73-74 85 5 9 9 17 10 24 34-19 60-20 108-45l-3-5c-35 14-66 23-93 28 42-34 63-81 96-131-4-6-16-6-23-13-4 17-10 33-18 49-22 4-42 8-60 10zM38 47c30-31 62-38 110-80l-2-2C96-6 70 9 22 20c5 5 8 21 16 27zm223-266c-50 67-76 82-147 123l3 3c83-38 99-46 159-110 5-5 31-10 13-19-4-3-9-9-16-18l-14 11H143l5 10h113zm-15 60l-3 4c30 16 53 33 67 55 6 9 21 12 21-3-14-28-42-35-85-56zm46 74l-16 18H144l6 10h67v85h-97l5 10h201c10 0 11-10 2-12-9-5-15-11-20-17l-17 19h-56v-85h75c7 0 11-8 2-11-8-5-15-11-20-17" id="B"/><use transform="matrix(0.06172839506172839,0,0,0.06172839506172839,0,0)" xlink:href="#B" id="j"/><path fill="#3a414a" d="M147-197c0-20-1-41 7-51-5-5-17-4-26-8 4 15 1 40 2 59H81l-22-13c7 46 1 106 3 158H18l5 10h304c8 0 10-9 1-11-8-5-14-11-19-17-9 6-10 19-25 18v-125c-1-10 21-12 6-20-4-2-9-7-13-13l-11 13h-50c0-21-1-42 7-51-5-5-18-4-26-8 4 15 1 40 2 59h-52zM78-52v-71h52v71H78zm69 0v-71h52v71h-52zm69 0v-71h52v71h-52zM78-133v-55h52v55H78zm69-55h52v55h-52v-55zm69 0h52v55h-52v-55zM111-27C86 18 73 22 26 51l3 3c41-17 73-36 95-58 4-1 19-5 5-10-5-2-11-7-18-13zm103 1l-1 3c32 23 54 43 65 59 8 11 13 17 17 17 11-3 11-21-1-30-8-9-35-26-80-49" id="C"/><use transform="matrix(0.06172839506172839,0,0,0.06172839506172839,0,0)" xlink:href="#C" id="k"/><use transform="matrix(0.06172839506172839,0,0,0.06172839506172839,0,0)" xlink:href="#v" id="l"/><use transform="matrix(0.06172839506172839,0,0,0.06172839506172839,0,0)" xlink:href="#w" id="m"/><use transform="matrix(0.06172839506172839,0,0,0.06172839506172839,0,0)" xlink:href="#A" id="n"/><path fill="#3a414a" d="M55-134C54-79 39-63 23-30c3 10 15 14 22 2 15-27 14-52 15-106h-5zm70-26c-2-10 17-15 0-18-7-1-14-4-22-7 7 58-1 125 3 188 3 42 22 36 85 36 61 0 78 5 99-19-13-8-15-30-15-57h-3c-3 23-3 51-18 56-8 3-28 2-63 2-45 0-61 6-66-18v-163zm18-90l-2 5c28 19 46 37 55 53 6 9 11 14 14 14 13-4 9-27-2-35-10-11-31-24-65-37zM303-53c5 15 24 10 21-9-6-35-30-53-60-80l-2 1c24 35 27 43 41 88" id="D"/><use transform="matrix(0.06172839506172839,0,0,0.06172839506172839,0,0)" xlink:href="#D" id="o"/><path fill="#3a414a" d="M33 0c29-24 64-27 111-57l-3-3c-22 8-42 15-59 20v-82h50c9 1 9-8 2-10-7-4-13-10-17-15-8 9-15 19-35 16v-73h53c7 0 8-10 1-11-8-5-14-9-18-15l-15 16H15l6 10h45v73H18l5 9h43v87c-17 3-36 8-49 9 5 5 8 22 16 26zm280-217c0-9 24-12 7-20-4-3-10-7-15-13l-11 13H161l-20-10c14 47-2 120 7 172 10-2 17-7 14-22h56v51h-74l6 9h68v66H100l6 10h226c10 1 12-9 3-11-9-5-15-11-20-18l-17 19h-63v-66h80c7 1 9-9 1-10-8-5-14-11-19-17l-17 18h-45v-51h62c1 6-3 17 3 18 4-2 11-3 13-7v-131zM162-107v-55h56v55h-56zm73-55h62v55h-62v-55zm-73-9v-56h56v56h-56zm73-56h62v56h-62v-56" id="E"/><use transform="matrix(0.06172839506172839,0,0,0.06172839506172839,0,0)" xlink:href="#E" id="p"/><use transform="matrix(0.06172839506172839,0,0,0.06172839506172839,0,0)" xlink:href="#w" id="q"/><path fill="#3a414a" d="M112-114c-3-16-19-26-34-38v-25c13-1 54 6 38-10-7-4-12-8-16-13-6 6-8 16-22 14 2-23-5-55 6-68-3-7-20-4-25-8 4 15 3 53 3 76H18c3 15 27 7 43 9-11 72-22 80-43 149 18-30 34-57 44-94l1 176c5-3 14-2 15-8v-190c9 13 11 18 18 37 2 4 4 7 8 7 6 0 9-5 8-14zm85-87c-1-9 20-14 4-21-4-3-9-6-14-12-11 15-49 10-63 0l1 215c-6 2-13 3-18 4 6 6 9 22 17 28 15-21 37-27 66-55 5 11-1 30 10 34 7 0 13-9 12-18-5-20-17-39-36-55 5 11 9 23 12 34-19 10-34 17-47 22v-78h39c-2 11 4 13 13 8 2-1 4-2 4-3v-103zm-56-14h39v47h-39v-47zm0 56h39v47h-39v-47zM279 10c0-30-6-74 7-88-1-3-12-3-16-5 2-9 4-19 6-29h51c6 0 7-8 1-10-6-4-11-7-15-12l-12 12h-24c4-28 5-61 5-95 14-2 40 6 46-5-5-8-20-13-23-21l-15 17h-78c3 5 4 11 13 9v95h-22l6 10h50C246-34 224-8 165 46l3 3c49-33 80-67 94-103 6 40-21 101 35 94 23-3 31 2 35-15-9-10-8-36-9-62h-3c-5 32 12 62-23 62-16 0-18-3-18-15zm-18-132h-19v-95h23" id="F"/><use transform="matrix(0.06172839506172839,0,0,0.06172839506172839,0,0)" xlink:href="#F" id="r"/><path fill="#3a414a" d="M86-185c15-4 12-25-1-36-8-6-24-23-42-29 20 23 23 26 34 57 2 5 5 8 9 8zm13 59c0-10 18-12 5-18-4-2-8-6-12-11-14 15-51 6-77 8l6 10h61V3c0 7-4 13-11 17 7 7 11 13 15 20 20-17 38-38 55-63l-1-3C126-12 113-1 99 7v-133zm124-107c3-5 22-8 7-14-6-2-11-6-18-11-26 69-43 94-94 136l2 4c43-22 78-63 100-109 9 32 59 86 80 96 11-8 22-13 34-13v-3c-57-18-80-35-111-86zM181-36c54-14 83-34 119-48 6-11-15-11-21-21-30 38-48 41-98 65 2-27-6-66 7-79-7-4-17-5-27-10 5 43-1 90 2 136 3 40 18 36 75 36 54 0 70 4 86-19-12-3-10-23-16-36-6 40-12 39-70 37-40-2-57 4-57-18v-43" id="G"/><use transform="matrix(0.06172839506172839,0,0,0.06172839506172839,0,0)" xlink:href="#G" id="s"/></defs></g></svg>