<svg xmlns="http://www.w3.org/2000/svg" xmlns:xlink="http://www.w3.org/1999/xlink" xmlns:lucid="lucid" width="852.48" height="262"><g transform="translate(-78.52332285115301 -2589)" lucid:page-tab-id="pnEOBFb-KCq8"><path d="M0 2448h1360v880H0z" fill="#fff"/><path d="M540 2680h160v80H540z" stroke="#000" stroke-width="2" fill="#fff"/><use xlink:href="#a" transform="matrix(1,0,0,1,552,2692) translate(46.05 31.9)"/><path d="M620 2601v59.5M620 2601.03V2600" stroke="#000" stroke-width="2" fill="none"/><path d="M620 2675.76l-4.64-14.26h9.28z" stroke="#000" stroke-width="2"/><use xlink:href="#b" transform="matrix(1,0,0,1,534.05,2628.7) translate(0 14.4)"/><use xlink:href="#c" transform="matrix(1,0,0,1,534.05,2628.7) translate(27.1 14.4)"/><path d="M620 2779.5v59.5" stroke="#000" stroke-width="2" fill="none"/><path d="M620 2764.24l4.64 14.26h-9.28z" stroke="#000" stroke-width="2"/><path d="M620 2838.97v1.03" stroke="#000" stroke-width="2" fill="none"/><use xlink:href="#d" transform="matrix(1,0,0,1,502.84999999999997,2795.2) translate(0 14.4)"/><use xlink:href="#c" transform="matrix(1,0,0,1,502.84999999999997,2795.2) translate(58.300000000000004 14.4)"/><path d="M702 2720h179.5" stroke="#000" stroke-width="2" fill="none"/><path d="M702.03 2721H701v-2h1.03z"/><path d="M896.76 2720l-14.26 4.64v-9.28z" stroke="#000" stroke-width="2"/><use xlink:href="#e" transform="matrix(1,0,0,1,745.875,2694.3999999999996) translate(0 14.4)"/><use xlink:href="#c" transform="matrix(1,0,0,1,745.875,2694.3999999999996) translate(58.400000000000006 14.4)"/><path d="M382 2720h138.5" stroke="#000" stroke-width="2" fill="none"/><path d="M382.03 2721H381v-2h1.03z"/><path d="M535.76 2720l-14.26 4.64v-9.28z" stroke="#000" stroke-width="2"/><use xlink:href="#f" transform="matrix(1,0,0,1,395.20833333333326,2694.3999999999996) translate(0 14.4)"/><use xlink:href="#c" transform="matrix(1,0,0,1,395.20833333333326,2694.3999999999996) translate(53.400000000000006 14.4)"/><path d="M220 2680h160v80H220z" stroke="#000" stroke-width="2" fill="#fff"/><use xlink:href="#a" transform="matrix(1,0,0,1,232,2692) translate(46.05 31.9)"/><path d="M200.5 2720H101" stroke="#000" stroke-width="2" fill="none"/><path d="M215.76 2720l-14.26 4.64v-9.28z" stroke="#000" stroke-width="2"/><path d="M101.03 2720H100" stroke="#000" stroke-width="2" fill="none"/><use xlink:href="#f" transform="matrix(1,0,0,1,90.52122641509433,2694.3999999999996) translate(0 14.4)"/><use xlink:href="#g" transform="matrix(1,0,0,1,90.52122641509433,2694.3999999999996) translate(53.400000000000006 14.4)"/><use xlink:href="#h" transform="matrix(1,0,0,1,90.52122641509433,2694.3999999999996) translate(108.75 14.4)"/><path d="M200.5 2686H101" stroke="#000" stroke-width="2" fill="none"/><path d="M215.76 2686l-14.26 4.64v-9.28z" stroke="#000" stroke-width="2"/><path d="M101.03 2686H100" stroke="#000" stroke-width="2" fill="none"/><g><use xlink:href="#f" transform="matrix(1,0,0,1,89.52332285115301,2660.4) translate(0 14.4)"/><use xlink:href="#g" transform="matrix(1,0,0,1,89.52332285115301,2660.4) translate(53.400000000000006 14.4)"/><use xlink:href="#i" transform="matrix(1,0,0,1,89.52332285115301,2660.4) translate(108.75 14.4)"/></g><path d="M120 2725.33h87.33V2760H120z" fill="none"/><g><use xlink:href="#j" transform="matrix(1,0,0,1,120,2725.333333333334) translate(30.5 21.1)"/></g><defs><path d="M106-76c4 61-43 93-98 74v-43h11c2 18 5 33 28 33 16 0 25-11 25-33v-177l-30-4v-10h91v10l-27 4v146" id="k"/><path d="M90-170c52 0 76 32 76 87 0 54-24 87-77 87-51 0-75-34-75-87 0-54 24-87 76-87zM89-10c39 0 46-35 46-73 0-39-7-73-46-73-39 1-44 34-44 73s6 72 44 73" id="l"/><path d="M47-200c-23 0-25-39 0-38 13 0 18 7 20 19-1 11-8 19-20 19zM65-12l28 4v8H8v-8l28-4v-141l-24-4v-8h53v153" id="m"/><path d="M125-118c4-37-41-34-68-26v132l23 4v8H8C5-13 21-9 28-12v-141c-7-3-23 1-20-12h47l2 13c31-23 98-29 98 31v109c7 3 23-1 20 12h-72v-8l22-4v-106" id="n"/><path d="M84-170c49 0 66 33 63 87H46c-8 60 38 80 95 63v10C128-2 108 4 88 4 34 4 14-29 14-84c-1-54 22-86 70-86zm33 73c12-57-57-82-69-24-1 7-2 15-2 24h71" id="o"/><path d="M57-145c16-10 35-24 60-25v45c-19 1-8-30-40-17l-20 6v124l29 4v8H7v-8l21-4v-141c-8-3-24 2-21-12h48" id="p"/><g id="a"><use transform="matrix(0.05,0,0,0.05,0,0)" xlink:href="#k"/><use transform="matrix(0.05,0,0,0.05,7,0)" xlink:href="#l"/><use transform="matrix(0.05,0,0,0.05,16,0)" xlink:href="#m"/><use transform="matrix(0.05,0,0,0.05,21,0)" xlink:href="#n"/><use transform="matrix(0.05,0,0,0.05,30,0)" xlink:href="#o"/><use transform="matrix(0.05,0,0,0.05,37.95,0)" xlink:href="#p"/></g><path d="M75-108c48 3 76-12 76-58s-28-57-76-54v112zm111-58c-1 60-46 78-111 74v78l37 5v9H13v-9l28-5v-208l-31-4v-10c81 1 178-14 176 70" id="q"/><path d="M256-236v10l-26 4L135 5h-9L31-222l-27-4v-10h95v10l-31 4 71 174 71-174-31-4v-10h77" id="r"/><g id="b"><use transform="matrix(0.05,0,0,0.05,0,0)" xlink:href="#q"/><use transform="matrix(0.05,0,0,0.05,10,0)" xlink:href="#r"/></g><path d="M178-68c0 79-95 82-154 59v-54h12c1 35 22 52 60 52 50 0 69-58 33-82-39-24-105-21-105-85 0-67 86-66 142-53v49h-12l-6-29c-31-27-121-7-89 42 28 43 119 24 119 101" id="s"/><path d="M54-38c-1 25 24 26 44 20v12C71 10 25 9 25-35v-115H4c-2-14 14-10 21-15l18-38h11v38h38v15H54v112" id="t"/><path d="M32-163c41-10 102-14 102 39v112c8 3 24-2 21 12h-45l-4-17C83 13 3 13 13-46c-2-50 45-50 92-51 4-36-5-70-42-56-6 2-12 4-16 6-4 7 0 23-15 20v-36zM42-47c0 41 41 33 63 22v-59c-34 1-63-1-63 37" id="u"/><path d="M126-118c4-37-42-32-68-25v131l24 4v8H8C5-13 21-9 28-12v-141c-7-3-23 1-20-12h48l1 13c22-15 77-30 92 2 32-22 104-36 104 29v109c8 3 24-2 21 12h-75v-8l25-4v-106c3-39-45-31-72-24 7 37 1 88 3 130l25 4v8h-78v-8l24-4v-106" id="v"/><g id="c"><use transform="matrix(0.05,0,0,0.05,0,0)" xlink:href="#s"/><use transform="matrix(0.05,0,0,0.05,10,0)" xlink:href="#t"/><use transform="matrix(0.05,0,0,0.05,15,0)" xlink:href="#p"/><use transform="matrix(0.05,0,0,0.05,20.95,0)" xlink:href="#o"/><use transform="matrix(0.05,0,0,0.05,28.899999999999995,0)" xlink:href="#u"/><use transform="matrix(0.05,0,0,0.05,36.85,0)" xlink:href="#v"/></g><path d="M75-106v92l39 5v9H13v-9l28-5v-208l-31-4v-10h177v57h-11l-6-38c-28-4-63-3-95-3v98h69l5-28h11v73h-11l-5-29H75" id="w"/><path d="M124-13C89 8 26 15 26-45v-108c-8-3-24 2-21-12h50v118c-3 37 42 32 69 25v-131l-25-4v-8h54v153c8 3 24-2 21 12h-48" id="x"/><g id="d"><use transform="matrix(0.05,0,0,0.05,0,0)" xlink:href="#w"/><use transform="matrix(0.05,0,0,0.05,10,0)" xlink:href="#o"/><use transform="matrix(0.05,0,0,0.05,17.95,0)" xlink:href="#u"/><use transform="matrix(0.05,0,0,0.05,25.899999999999995,0)" xlink:href="#t"/><use transform="matrix(0.05,0,0,0.05,30.899999999999995,0)" xlink:href="#x"/><use transform="matrix(0.05,0,0,0.05,39.9,0)" xlink:href="#p"/><use transform="matrix(0.05,0,0,0.05,45.85,0)" xlink:href="#o"/></g><path d="M166-85c3 67-44 102-111 85l1 64 29 4v9H6v-9l21-4v-217c-7-3-22 1-19-12h46l1 9c11-8 26-14 45-14 47 2 64 36 66 85zM56-13c53 14 83-14 78-72 7-53-33-79-78-60v132" id="y"/><path d="M65-12l28 4v8H7v-8l28-4v-226l-28-4v-8h58v238" id="z"/><g id="e"><use transform="matrix(0.05,0,0,0.05,0,0)" xlink:href="#s"/><use transform="matrix(0.05,0,0,0.05,10,0)" xlink:href="#u"/><use transform="matrix(0.05,0,0,0.05,17.95,0)" xlink:href="#v"/><use transform="matrix(0.05,0,0,0.05,31.950000000000003,0)" xlink:href="#y"/><use transform="matrix(0.05,0,0,0.05,40.95,0)" xlink:href="#z"/><use transform="matrix(0.05,0,0,0.05,45.95,0)" xlink:href="#o"/></g><path d="M81-9v9H4v-9l26-5 81-224h33l83 224 30 5v9h-99v-9l31-5-23-68H73L49-14zm38-203L78-98h82" id="A"/><path d="M45-84c0 64 52 80 104 63 1 25-30 25-55 25-56 0-80-32-80-88 0-76 62-98 131-80v46h-10c-5-15-4-31-23-35-47-10-67 21-67 69" id="B"/><g id="f"><use transform="matrix(0.05,0,0,0.05,0,0)" xlink:href="#A"/><use transform="matrix(0.05,0,0,0.05,12.950000000000001,0)" xlink:href="#B"/><use transform="matrix(0.05,0,0,0.05,20.900000000000002,0)" xlink:href="#t"/><use transform="matrix(0.05,0,0,0.05,25.900000000000002,0)" xlink:href="#m"/><use transform="matrix(0.05,0,0,0.05,30.900000000000002,0)" xlink:href="#l"/><use transform="matrix(0.05,0,0,0.05,39.900000000000006,0)" xlink:href="#n"/></g><g id="g"><use transform="matrix(0.05,0,0,0.05,0,0)" xlink:href="#s"/><use transform="matrix(0.05,0,0,0.05,10,0)" xlink:href="#t"/><use transform="matrix(0.05,0,0,0.05,15,0)" xlink:href="#p"/><use transform="matrix(0.05,0,0,0.05,20.95,0)" xlink:href="#o"/><use transform="matrix(0.05,0,0,0.05,28.899999999999995,0)" xlink:href="#u"/><use transform="matrix(0.05,0,0,0.05,36.85,0)" xlink:href="#v"/></g><path d="M110-14l48 5v9H32v-9l48-5v-192l-48 17v-10l69-39h9v224" id="C"/><use transform="matrix(0.05,0,0,0.05,0,0)" xlink:href="#C" id="h"/><path d="M24-231c66-21 156 2 128 81C132-92 78-66 39-27h121V0H16v-26l59-54c26-25 47-47 47-97 0-48-47-57-81-37l-6 29H24v-46" id="D"/><use transform="matrix(0.05,0,0,0.05,0,0)" xlink:href="#D" id="i"/><path d="M45-37c13 0 21 8 21 21C67-2 57 4 45 5 33 4 23-2 24-16c0-13 8-21 21-21" id="E"/><g id="j"><use transform="matrix(0.05,0,0,0.05,0,0)" xlink:href="#E"/><use transform="matrix(0.05,0,0,0.05,4.5,0)" xlink:href="#E"/><use transform="matrix(0.05,0,0,0.05,9,0)" xlink:href="#E"/><use transform="matrix(0.05,0,0,0.05,13.5,0)" xlink:href="#E"/><use transform="matrix(0.05,0,0,0.05,18,0)" xlink:href="#E"/><use transform="matrix(0.05,0,0,0.05,22.5,0)" xlink:href="#E"/></g></defs></g></svg>